<svg width="25" height="24" viewBox="0 0 33 32" fill="none" xmlns="http://www.w3.org/2000/svg">
<path d="M32.1888 12.8664H30.9V12.8H16.5V19.2H25.5424C24.2232 22.9256 20.6784 25.6 16.5 25.6C11.1984 25.6 6.9 21.3016 6.9 16C6.9 10.6984 11.1984 6.4 16.5 6.4C18.9472 6.4 21.1736 7.3232 22.8688 8.8312L27.3944 4.3056C24.5368 1.6424 20.7144 0 16.5 0C7.664 0 0.5 7.164 0.5 16C0.5 24.836 7.664 32 16.5 32C25.336 32 32.5 24.836 32.5 16C32.5 14.9272 32.3896 13.88 32.1888 12.8664Z" fill="#FFC107"/>
<path d="M2.34503 8.5528L7.60183 12.408C9.02423 8.8864 12.469 6.4 16.5002 6.4C18.9474 6.4 21.1738 7.3232 22.869 8.8312L27.3946 4.3056C24.537 1.6424 20.7146 0 16.5002 0C10.3546 0 5.02503 3.4696 2.34503 8.5528Z" fill="#FF3D00"/>
<path d="M16.4999 32C20.6327 32 24.3879 30.4184 27.2271 27.8464L22.2751 23.656C20.6687 24.8728 18.6719 25.6 16.4999 25.6C12.3383 25.6 8.80466 22.9464 7.47346 19.2432L2.25586 23.2632C4.90386 28.4448 10.2815 32 16.4999 32Z" fill="#4CAF50"/>
<path d="M32.1888 12.8662H30.9V12.7998H16.5V19.1998H25.5424C24.9088 20.9894 23.7576 22.5326 22.2728 23.6566C22.2736 23.6558 22.2744 23.6558 22.2752 23.655L27.2272 27.8454C26.8768 28.1638 32.5 23.9998 32.5 15.9998C32.5 14.927 32.3896 13.8798 32.1888 12.8662Z" fill="#1976D2"/>
</svg>
