<?xml version="1.0" encoding="utf-8"?>
<!-- Generator: Adobe Illustrator 16.0.0, SVG Export Plug-In . SVG Version: 6.00 Build 0)  -->
<!DOCTYPE svg PUBLIC "-//W3C//DTD SVG 1.1//EN" "http://www.w3.org/Graphics/SVG/1.1/DTD/svg11.dtd">
<svg version="1.1" id="Capa_1" xmlns="http://www.w3.org/2000/svg" xmlns:xlink="http://www.w3.org/1999/xlink" x="0px" y="0px"
	 width="792px" height="612px" viewBox="0 0 792 612" enable-background="new 0 0 792 612" xml:space="preserve">
<path fill="#71347B" d="M393.047,209.708h90.282c29.146-63.848,65.118-109.344,123.543-109.344c3.614,0,8.137,0.863,11.751,0.863
	c54.242,6.022,103.063,46.477,111.2,125.663c0.903,5.164,0.903,11.188,0.903,17.214c0,14.632,0,37.01-13.56,68.854
	c-13.563,30.986-37.974,62.835-78.652,89.513c-1.812,1.721-3.615,3.448-6.329,4.308l1.809,3.442
	c62.376-37.013,98.536-95.542,101.255-157.512v-10.33c0-55.083-20.799-98.98-53.342-128.245
	c-32.542-29.265-75.035-43.035-111.197-43.035C471.843,71.101,426.952,136.324,393.047,209.708"/>
<path fill="#71347B" d="M363.686,406.777c42.463-31.098,70.156-76.969,91.775-128.684h-92.544
	c-13.143,28.517-27.212,54.926-44.431,76.181c-25.316,30.123-54.245,43.035-88.598,43.035c-5.425,0-10.848,0-16.271-0.861
	c-56.053-6.882-114.816-80.044-117.526-129.968c-0.904-6.885-0.904-13.77-0.904-20.654c0-44.758,14.467-92.095,44.298-127.387
	c29.833-35.289,73.229-55.951,117.526-55.951v-4.3c-46.104,0-90.404,20.657-122.046,55.948
	c-31.64,35.286-46.107,82.628-46.107,128.247c0,6.882,0,13.77,0.904,20.657c9.944,98.982,84.982,168.7,182.615,168.7
	C309.446,431.739,340.18,423.131,363.686,406.777"/>
<path fill="#AE7B54" d="M311.529,265.908l27.426,0.237c-1.038,0.324-2.282,0.756-3.702,1.314
	c-4.904,1.946-11.756,5.51-18.232,11.951c-4.645,4.61-7.805,9.417-9.936,13.542c2.046-6.93,3.44-14.795,4.186-23.658v-0.057
	C311.369,268.15,311.454,267.038,311.529,265.908"/>
<path fill="#AE7B54" d="M308.561,220.831c2.028,3.774,4.874,7.995,8.865,12.088c6.49,6.68,13.42,10.364,18.299,12.382
	c1.292,0.529,2.442,0.938,3.397,1.26l-27.297-0.234c-0.025-0.823-0.063-1.629-0.097-2.43
	C311.304,235.446,310.259,227.763,308.561,220.831"/>
<path fill="#AE7B54" d="M420.889,247.407l-0.176,20.003c-0.024,3.161-2.883,5.533-5.996,4.999
	c-8.686-1.477-17.868-2.734-27.519-3.659c-18.631-1.766-36.033-2.006-51.945-1.29c-8.431,0.382-16.431,1.016-23.981,1.833
	l0.002-0.052c0.095-1.09,0.18-2.2,0.252-3.333c0.237-3.647,0.369-7.454,0.401-11.425c0.025-2.793-0.005-5.515-0.102-8.157
	c-0.025-0.821-0.063-1.631-0.097-2.43c7.71,0.629,15.712,1.105,23.999,1.404c16.156,0.582,33.378,0.481,51.528-0.613
	c9.651-0.584,18.97-1.412,27.946-2.425C418.249,241.924,420.913,244.331,420.889,247.407"/>
<path fill="#502956" d="M234.151,170.618c42.351,0.367,66.146,16.326,74.41,50.213c1.699,6.932,2.744,14.613,3.168,23.066
	c0.035,0.798,0.072,1.609,0.097,2.43c0.097,2.644,0.127,5.363,0.102,8.157c-0.032,3.971-0.165,7.778-0.399,11.425
	c-0.075,1.13-0.16,2.242-0.254,3.333l-0.002,0.055c-0.744,8.863-2.14,16.728-4.183,23.658
	c-9.526,32.148-33.371,44.406-74.373,44.054c-54.509-0.471-98.374-38.098-97.977-84.05
	C135.136,207.012,179.642,170.148,234.151,170.618"/>
<path fill="#AE7B54" d="M541.268,227.476h-27.429c1.035-0.334,2.275-0.776,3.691-1.35c4.887-1.983,11.707-5.61,18.125-12.105
	c4.607-4.65,7.728-9.484,9.818-13.627c-1.983,6.95-3.311,14.825-3.979,23.695v0.055C541.407,225.231,541.33,226.341,541.268,227.476
	"/>
<path fill="#AE7B54" d="M544.623,272.526c-2.061-3.757-4.941-7.952-8.965-12.011c-6.551-6.623-13.511-10.252-18.409-12.226
	c-1.295-0.516-2.45-0.918-3.41-1.229h27.299c0.033,0.821,0.075,1.631,0.118,2.427C541.752,257.938,542.864,265.609,544.623,272.526"
	/>
<path fill="#AE7B54" d="M432.07,246.92v-20.006c0-3.16,2.839-5.555,5.957-5.051c8.698,1.404,17.891,2.582,27.546,3.422
	c18.646,1.609,36.053,1.696,51.955,0.84c8.426-0.454,16.424-1.152,23.964-2.038v0.055c-0.085,1.087-0.159,2.2-0.227,3.333
	c-0.205,3.647-0.302,7.456-0.302,11.427c0,2.796,0.055,5.513,0.174,8.157c0.03,0.821,0.075,1.631,0.118,2.427
	c-7.713-0.559-15.723-0.971-24.007-1.195c-16.164-0.444-33.386-0.197-51.523,1.055c-9.646,0.669-18.96,1.574-27.925,2.667
	C434.76,252.381,432.07,249.996,432.07,246.92"/>
<path fill="#502956" d="M619.464,322.096c-42.351,0-66.285-15.752-74.841-49.57c-1.759-6.917-2.871-14.587-3.365-23.039
	c-0.045-0.798-0.087-1.606-0.12-2.425c-0.119-2.644-0.172-5.366-0.172-8.159c0-3.969,0.098-7.78,0.302-11.425
	c0.063-1.135,0.14-2.245,0.228-3.337v-0.053c0.666-8.87,1.995-16.748,3.979-23.695c9.249-32.23,32.986-44.693,73.99-44.693
	c54.512,0,98.695,37.247,98.695,83.203C718.159,284.849,673.976,322.096,619.464,322.096"/>
<path fill="#FFFFFF" d="M560.675,242.231c0,8.227-6.668,14.892-14.892,14.892c-8.225,0-14.893-6.665-14.893-14.892
	c0-8.225,6.668-14.892,14.893-14.892C554.007,227.339,560.675,234.006,560.675,242.231"/>
<path fill="#71347B" d="M242.714,447.05l-5.498,10.629l-0.978-0.529c0-0.898-0.287-1.604-0.855-2.118
	c-1.549-1.385-3.829-2.524-6.842-3.42c-3.016-0.898-6.067-1.345-9.162-1.345c-2.634,0-4.969,0.364-7.007,1.098
	c-2.933,1.06-4.4,2.594-4.4,4.602c0,1.332,0.708,2.275,2.118,2.832c1.412,0.556,4.141,0.998,8.187,1.322l6.438,0.489
	c5.618,0.437,9.896,1.522,12.827,3.261c1.629,0.978,2.973,2.28,4.033,3.909c1.33,2.038,1.996,4.33,1.996,6.882
	c0,4.645-2.093,8.309-6.273,10.995c-3.991,2.582-9.392,3.872-16.207,3.872c-6.872,0-13.51-1.454-19.918-4.358
	c-0.434-0.189-0.801-0.287-1.1-0.287c-0.544,0-1.045,0.327-1.507,0.978l-1.018-0.404l4.682-11.16l1.02,0.404v0.33
	c0,0.703,0.27,1.302,0.816,1.788c1.354,1.198,3.704,2.235,7.044,3.118c3.34,0.883,6.638,1.322,9.898,1.322
	c2.876,0,5.455-0.377,7.735-1.14c2.827-0.923,4.236-2.415,4.236-4.48c0-1.654-0.976-2.809-2.931-3.46
	c-1.305-0.434-3.652-0.803-7.044-1.103l-6.393-0.529c-3.45-0.269-6.086-0.624-7.905-1.06c-1.818-0.434-3.408-1.07-4.765-1.911
	c-1.736-1.087-3.096-2.569-4.073-4.44c-0.976-1.874-1.467-3.924-1.467-6.151c0-4.994,2.147-8.811,6.438-11.445
	c3.909-2.387,8.741-3.582,14.498-3.582c3.121,0,6.034,0.344,8.735,1.041c2.704,0.691,5.927,1.903,9.673,3.644
	c1.115,0.517,1.889,0.771,2.323,0.771c0.431,0,0.99-0.297,1.668-0.893L242.714,447.05z"/>
<path fill="#71347B" d="M263.488,469.802v14.56c0,0,0.104,1.484,0.486,1.931c0.379,0.447,1.06,0.821,1.831,1.115v0.928h-16.217
	v-0.928c1.242-0.242,1.916-0.594,2.308-1.058c0.394-0.461,0.594-1.112,0.01-1.953V447.09c0.584-0.841,0.392-1.479,0.013-1.914
	c-0.382-0.437-2.33-1.1-2.33-1.1v-0.92h30.564c6.059,0,10.622,0.875,13.695,2.625c1.784,1.022,3.183,2.474,4.186,4.36
	c1.003,1.883,1.507,3.996,1.507,6.338c0,4.495-1.591,7.837-4.774,10.033c-3.183,2.192-8.052,3.29-14.613,3.29H263.488z
	 M263.488,461.693h15.683c2.874,0,4.867-0.274,5.992-0.821c1.641-0.793,2.462-2.257,2.462-4.393s-0.821-3.6-2.462-4.393
	c-1.095-0.549-3.093-0.82-5.992-0.82h-15.683V461.693z"/>
<path fill="#71347B" d="M317.937,447.088v37.27c-0.162,0.84,0.027,1.487,0.409,1.933c0.379,0.449,1.058,0.821,1.908,1.12v0.928
	h-16.219v-0.928c1.167-0.245,1.841-0.599,2.232-1.061c0.394-0.458,0.594-1.11,0.084-1.953V447.09
	c0.509-0.843,0.317-1.479-0.062-1.916c-0.382-0.434-1.058-0.798-2.255-1.098v-0.92h16.219v0.92c-0.851,0.27-1.529,0.631-1.908,1.078
	C317.964,445.601,317.775,446.245,317.937,447.088"/>
<path fill="#71347B" d="M341.105,458.28v26.08c0,0,0.042,1.492,0.434,1.953c0.394,0.461,1.065,0.826,1.883,1.098v0.925h-15.062
	v-0.925c0.995-0.245,1.667-0.599,2.061-1.058c0.394-0.464,0.588-1.115,0.257-1.958V447.09c0.332-0.841,0.145-1.479-0.237-1.914
	c-0.382-0.434-1.06-0.803-2.081-1.103v-0.918h17.379v1.14c-1.215,0.299-1.818,0.828-1.818,1.589c0,0.654,0.441,1.412,1.322,2.28
	l24.822,24.273V447.09c0,0-0.349-1.487-0.73-1.934c-0.379-0.449-1.058-0.808-1.584-1.083v-0.918h15.059v0.918
	c-1.337,0.274-2.018,0.631-2.395,1.08c-0.381,0.449-0.574,1.093,0.078,1.934v37.272c-0.651,0.841-0.459,1.484-0.078,1.931
	c0.377,0.449,1.058,0.823,2.395,1.12v0.925h-16.216v-1.137c1.21-0.245,1.813-0.741,1.813-1.497c0-0.376-0.165-0.768-0.496-1.17
	c-0.33-0.404-1.085-1.202-2.268-2.387L341.105,458.28z"/>
<path fill="#71347B" d="M433.859,447.05l-5.496,10.629l-0.977-0.529c0-0.898-0.287-1.604-0.859-2.118
	c-1.546-1.385-3.826-2.524-6.842-3.42c-3.014-0.898-6.066-1.345-9.162-1.345c-2.634,0-4.969,0.364-7.007,1.098
	c-2.931,1.06-4.397,2.594-4.397,4.602c0,1.332,0.709,2.275,2.117,2.832c1.412,0.556,4.144,0.998,8.188,1.322l6.436,0.489
	c5.62,0.437,9.896,1.522,12.829,3.261c1.629,0.978,2.974,2.28,4.033,3.909c1.327,2.038,1.993,4.33,1.993,6.882
	c0,4.645-2.09,8.309-6.273,10.995c-3.988,2.582-9.392,3.872-16.209,3.872c-6.867,0-13.508-1.454-19.913-4.358
	c-0.434-0.189-0.803-0.287-1.1-0.287c-0.542,0-1.045,0.327-1.507,0.978l-1.018-0.404l4.682-11.16l1.02,0.404v0.33
	c0,0.703,0.27,1.302,0.813,1.788c1.357,1.198,3.707,2.235,7.044,3.118c3.344,0.883,6.641,1.322,9.898,1.322
	c2.877,0,5.458-0.377,7.738-1.14c2.826-0.923,4.235-2.415,4.235-4.48c0-1.654-0.976-2.809-2.934-3.46
	c-1.302-0.434-3.649-0.803-7.044-1.103l-6.394-0.529c-3.447-0.269-6.081-0.624-7.902-1.06c-1.819-0.434-3.408-1.07-4.765-1.911
	c-1.736-1.087-3.096-2.569-4.073-4.44c-0.976-1.874-1.467-3.924-1.467-6.151c0-4.994,2.145-8.811,6.438-11.445
	c3.907-2.387,8.741-3.582,14.499-3.582c3.12,0,6.031,0.344,8.734,1.041c2.702,0.691,5.925,1.903,9.674,3.644
	c1.113,0.517,1.887,0.771,2.32,0.771c0.437,0,0.992-0.297,1.668-0.893L433.859,447.05z"/>
<path fill="#71347B" d="M455.793,469.802v14.56c0,0-0.292,1.484,0.087,1.931c0.382,0.447,1.061,0.821,2.23,1.115v0.928h-16.216
	v-0.928c0.845-0.242,1.516-0.594,1.912-1.058c0.393-0.461,0.59-1.112,0.404-1.953V447.09c0.186-0.841-0.005-1.479-0.384-1.914
	c-0.382-0.437-1.933-1.1-1.933-1.1v-0.92h30.563c6.06,0,10.624,0.875,13.695,2.625c1.783,1.022,3.183,2.474,4.186,4.36
	c1.003,1.883,1.507,3.996,1.507,6.338c0,4.495-1.592,7.837-4.774,10.033c-3.184,2.192-8.053,3.29-14.613,3.29H455.793z
	 M455.793,461.693h15.683c2.874,0,4.872-0.274,5.992-0.821c1.644-0.793,2.462-2.257,2.462-4.393s-0.818-3.6-2.462-4.393
	c-1.096-0.549-3.094-0.82-5.992-0.82h-15.683V461.693z"/>
<path fill="#71347B" d="M521.839,441.959c7.254,0,13.3,1.846,18.137,5.538c5.79,4.453,8.681,10.656,8.681,18.614
	c0,7.466-2.891,13.425-8.681,17.878c-4.781,3.694-10.801,5.54-18.055,5.54s-13.275-1.846-18.058-5.54
	c-5.812-4.453-8.723-10.534-8.723-18.247c0-7.79,2.911-13.872,8.723-18.245C508.673,443.885,514.667,442.042,521.839,441.959
	 M521.879,450.592c-4.702,0-8.536,1.507-11.502,4.522c-2.742,2.821-4.116,6.363-4.116,10.626c0,4.238,1.374,7.765,4.116,10.591
	c2.966,3.041,6.812,4.563,11.544,4.563c4.702,0,8.536-1.521,11.499-4.563c2.747-2.796,4.121-6.258,4.121-10.387
	c0-4.48-1.374-8.092-4.121-10.831C530.43,452.154,526.583,450.647,521.879,450.592"/>
<path fill="#71347B" d="M580.907,451.266v33.094c0,0-0.09,1.484,0.292,1.931c0.382,0.449,1.058,0.823,2.025,1.12v0.925h-16.217
	v-0.925c1.051-0.245,1.722-0.599,2.115-1.058c0.392-0.464,0.2-1.958,0.2-1.958v-33.128h-13.049
	c-0.868-0.063-1.526,0.132-1.976,0.519s-0.808,1.065-1.08,1.799h-1.272v-12.745h1.272c0.244,0.439,0.594,1.113,1.04,1.507
	s1.105,0.591,1.976,0.811h37.831c0.871-0.219,1.526-0.409,1.976-0.791c0.451-0.379,0.809-1.06,1.083-1.527h1.162v12.745h-1.162
	c-0.272-0.733-0.632-1.412-1.078-1.799c-0.451-0.387-1.109-0.581-1.978-0.519H580.907z"/>
</svg>
