<?xml version="1.0" encoding="utf-8"?>
<!-- Generator: Adobe Illustrator 16.0.0, SVG Export Plug-In . SVG Version: 6.00 Build 0)  -->
<!DOCTYPE svg PUBLIC "-//W3C//DTD SVG 1.1//EN" "http://www.w3.org/Graphics/SVG/1.1/DTD/svg11.dtd">
<svg version="1.1" id="Capa_1" xmlns="http://www.w3.org/2000/svg" xmlns:xlink="http://www.w3.org/1999/xlink" x="0px" y="0px"
	 width="164.164px" height="100px" viewBox="0 0 164.164 100" enable-background="new 0 0 164.164 100" xml:space="preserve">
<path fill="#AE7B54" d="M70.476,42H60.418c0.381-0.135,0.836-0.313,1.354-0.542c1.793-0.8,4.293-2.263,6.644-4.879
	c1.691-1.876,2.835-3.825,3.601-5.495c-0.725,2.802-1.213,5.977-1.458,9.551v0.022C70.527,41.095,70.498,41.543,70.476,42"/>
<path fill="#AE7B54" d="M71.705,60.16c-0.754-1.518-1.811-3.207-3.288-4.844c-2.4-2.668-4.952-4.131-6.748-4.927
	c-0.475-0.208-0.897-0.369-1.251-0.495h10.01c0.011,0.33,0.026,0.659,0.043,0.979C70.653,54.279,71.061,57.371,71.705,60.16"/>
<path fill="#AE7B54" d="M30.445,49.838v-8.063c0-1.276,1.039-2.24,2.182-2.038c3.188,0.568,6.56,1.04,10.098,1.381
	c6.837,0.648,13.216,0.683,19.046,0.339c3.09-0.183,6.022-0.464,8.786-0.823v0.022c-0.03,0.438-0.059,0.886-0.083,1.342
	c-0.075,1.471-0.11,3.006-0.11,4.606c0,1.128,0.019,2.223,0.063,3.289c0.011,0.33,0.026,0.659,0.043,0.979
	c-2.829-0.225-5.765-0.391-8.802-0.484c-5.925-0.177-12.24-0.079-18.887,0.428c-3.538,0.271-6.95,0.634-10.238,1.075
	C31.428,52.039,30.445,51.078,30.445,49.838"/>
<path fill="#502956" d="M99.144,80.141c-15.527,0-24.301-6.35-27.439-19.98c-0.644-2.789-1.052-5.881-1.232-9.287
	c-0.019-0.323-0.034-0.649-0.045-0.977c-0.044-1.066-0.062-2.163-0.062-3.291c0-1.6,0.034-3.135,0.11-4.604
	c0.022-0.458,0.051-0.906,0.083-1.346v-0.021c0.244-3.575,0.733-6.751,1.458-9.551c3.391-12.992,12.093-18.015,27.126-18.015
	c19.982,0,36.182,15.014,36.182,33.537C135.325,65.125,119.126,80.141,99.144,80.141"/>
<path fill="#FFFFFF" d="M77.59,47.948c0,3.318-2.445,6.003-5.46,6.003c-3.014,0-5.46-2.686-5.46-6.003
	c0-3.315,2.446-6.003,5.46-6.003C75.146,41.944,77.59,44.632,77.59,47.948"/>
</svg>
