<?xml version="1.0" encoding="utf-8"?>
<!-- Generator: Adobe Illustrator 16.0.0, SVG Export Plug-In . SVG Version: 6.00 Build 0)  -->
<!DOCTYPE svg PUBLIC "-//W3C//DTD SVG 1.1//EN" "http://www.w3.org/Graphics/SVG/1.1/DTD/svg11.dtd">
<svg version="1.1" id="Capa_1" xmlns="http://www.w3.org/2000/svg" xmlns:xlink="http://www.w3.org/1999/xlink" x="0px" y="0px"
	 width="400px" height="400px" viewBox="0 0 400 400" enable-background="new 0 0 400 400" xml:space="preserve">
<g>
	<defs>
		<rect id="SVGID_1_" width="412" height="400"/>
	</defs>
	<clipPath id="SVGID_2_">
		<use xlink:href="#SVGID_1_"  overflow="visible"/>
	</clipPath>
	<path clip-path="url(#SVGID_2_)" fill="#AE7B54" d="M229.226,233.378l-19.202,22.105c0.452-1.063,0.964-2.374,1.495-3.918
		c1.822-5.327,3.672-13.362,2.937-23.083c-0.523-6.97-2.239-12.873-4.106-17.46c4.208,6.469,9.625,13.052,16.308,19.801l0.045,0.041
		C227.516,231.693,228.356,232.531,229.226,233.378"/>
	<path clip-path="url(#SVGID_2_)" fill="#AE7B54" d="M267.884,262.221c-4.469-0.97-9.871-1.586-15.96-1.187
		c-9.928,0.639-17.72,3.711-22.742,6.275c-1.32,0.684-2.448,1.336-3.377,1.887l19.116-22.002c0.684,0.549,1.364,1.082,2.041,1.608
		C254.116,254.318,261.075,258.792,267.884,262.221"/>
	<path clip-path="url(#SVGID_2_)" fill="#AE7B54" d="M168.438,335.003l-16.126-14.009c-2.542-2.211-2.49-6.176,0.104-8.334
		c7.221-6.028,14.606-12.615,22.045-19.809c14.351-13.901,26.612-27.869,37.053-41.286c5.541-7.108,10.574-14.041,15.143-20.742
		l0.045,0.041c0.814,0.829,1.655,1.667,2.524,2.514c2.801,2.721,5.8,5.468,9,8.243c2.253,1.963,4.479,3.82,6.695,5.573
		c0.684,0.549,1.364,1.082,2.036,1.608c-5.85,5.824-11.789,11.989-17.775,18.509c-11.668,12.72-23.531,26.771-35.222,42.27
		c-6.213,8.238-12.006,16.38-17.405,24.373C174.723,336.661,170.917,337.156,168.438,335.003"/>
	<path clip-path="url(#SVGID_2_)" fill="#133344" d="M360.238,236.604c-29.651,34.136-59.107,42.398-92.35,25.616
		c-6.813-3.429-13.772-7.902-20.927-13.418c-0.677-0.528-1.357-1.06-2.041-1.607c-2.209-1.754-4.442-3.613-6.695-5.574
		c-3.2-2.775-6.199-5.525-8.996-8.243c-0.873-0.847-1.714-1.685-2.528-2.517l-0.045-0.039c-6.683-6.746-12.1-13.331-16.315-19.798
		c-19.496-30.021-12.921-57.879,15.791-90.928c38.166-43.932,99.128-53.466,136.163-21.288
		C399.33,130.98,398.407,192.672,360.238,236.604"/>
	<path clip-path="url(#SVGID_2_)" fill="none" stroke="#FFFFFF" stroke-miterlimit="10" d="M360.238,236.604
		c-29.651,34.136-59.107,42.398-92.35,25.616c-6.813-3.429-13.772-7.902-20.927-13.418c-0.677-0.528-1.357-1.06-2.041-1.607
		c-2.209-1.754-4.442-3.613-6.695-5.574c-3.2-2.775-6.199-5.525-8.996-8.243c-0.873-0.847-1.714-1.685-2.528-2.517l-0.045-0.039
		c-6.683-6.746-12.1-13.331-16.315-19.798c-19.496-30.021-12.921-57.879,15.791-90.928c38.166-43.932,99.128-53.466,136.163-21.288
		C399.33,130.98,398.407,192.672,360.238,236.604z"/>
	<path clip-path="url(#SVGID_2_)" fill="#FFFFFF" d="M254.499,225.438c6.63,5.762,7.333,15.804,1.577,22.43
		c-5.758,6.632-15.805,7.335-22.432,1.577c-6.63-5.757-7.333-15.803-1.576-22.43C237.826,220.386,247.872,219.68,254.499,225.438"/>
	<path clip-path="url(#SVGID_2_)" fill="#AE7B54" d="M151.086,247.914l18.883,22.385c-0.988-0.618-2.202-1.324-3.643-2.087
		c-4.986-2.62-12.638-5.69-22.359-6.457c-6.963-0.558-13.059,0.225-17.88,1.367c7.037-3.163,14.382-7.503,22.079-13.062l0.044-0.039
		C149.159,249.345,150.121,248.64,151.086,247.914"/>
	<path clip-path="url(#SVGID_2_)" fill="#AE7B54" d="M185.538,214.161c-1.645,4.268-3.085,9.512-3.626,15.587
		c-0.898,9.906,0.936,18.083,2.694,23.438c0.472,1.413,0.938,2.627,1.342,3.63l-18.791-22.277c0.646-0.595,1.278-1.186,1.898-1.771
		C175.607,226.548,181.105,220.357,185.538,214.161"/>
	<path clip-path="url(#SVGID_2_)" fill="#AE7B54" d="M242.124,323.638l-16.325,13.773c-2.578,2.174-6.487,1.508-8.217-1.387
		c-4.843-8.061-10.213-16.372-16.174-24.835c-11.526-16.322-23.433-30.584-35.082-42.975c-6.171-6.566-12.245-12.605-18.16-18.156
		l0.044-0.032c0.949-0.682,1.905-1.384,2.874-2.115c3.12-2.342,6.296-4.885,9.535-7.617c2.284-1.923,4.463-3.838,6.539-5.755
		c0.644-0.595,1.274-1.186,1.898-1.771c4.853,6.684,10.03,13.495,15.55,20.418c10.767,13.493,22.822,27.378,36.334,41.315
		c7.188,7.411,14.337,14.386,21.396,20.955C244.731,317.688,244.636,321.518,242.124,323.638"/>
	<path clip-path="url(#SVGID_2_)" fill="#133344" d="M174.47,118.964c29.156,34.562,32.771,64.934,11.068,95.197
		c-4.433,6.196-9.928,12.387-16.482,18.607c-0.624,0.585-1.254,1.176-1.898,1.771c-2.076,1.917-4.255,3.832-6.539,5.755
		c-3.241,2.732-6.415,5.275-9.532,7.62c-0.969,0.723-1.927,1.431-2.876,2.112l-0.044,0.032c-7.7,5.565-15.044,9.897-22.078,13.067
		c-32.667,14.639-59.179,3.847-87.408-29.614C1.152,189.029,1.131,127.327,38.633,95.691
		C76.127,64.06,136.942,74.479,174.47,118.964"/>
	<path clip-path="url(#SVGID_2_)" fill="none" stroke="#FFFFFF" stroke-miterlimit="10" d="M174.47,118.964
		c29.156,34.562,32.771,64.934,11.068,95.197c-4.433,6.196-9.928,12.387-16.482,18.607c-0.624,0.585-1.254,1.176-1.898,1.771
		c-2.076,1.917-4.255,3.832-6.539,5.755c-3.241,2.732-6.415,5.275-9.532,7.62c-0.969,0.723-1.927,1.431-2.876,2.112l-0.044,0.032
		c-7.7,5.565-15.044,9.897-22.078,13.067c-32.667,14.639-59.179,3.847-87.408-29.614C1.152,189.029,1.131,127.327,38.633,95.691
		C76.127,64.06,136.942,74.479,174.47,118.964z"/>
</g>
</svg>
