<?xml version="1.0" encoding="utf-8"?>
<!-- Generator: Adobe Illustrator 16.0.0, SVG Export Plug-In . SVG Version: 6.00 Build 0)  -->
<!DOCTYPE svg PUBLIC "-//W3C//DTD SVG 1.1//EN" "http://www.w3.org/Graphics/SVG/1.1/DTD/svg11.dtd">
<svg version="1.1" id="Capa_1" xmlns="http://www.w3.org/2000/svg" xmlns:xlink="http://www.w3.org/1999/xlink" x="0px" y="0px"
	 width="165.734px" height="103.847px" viewBox="0 0 165.734 103.847" enable-background="new 0 0 165.734 103.847"
	 xml:space="preserve">
<g>
	<defs>
		<rect id="SVGID_1_" width="165.734" height="103.847"/>
	</defs>
	<clipPath id="SVGID_2_">
		<use xlink:href="#SVGID_1_"  overflow="visible"/>
	</clipPath>
	<path clip-path="url(#SVGID_2_)" fill="#AE7B54" d="M70.844,46.058h-11.68c0.442-0.143,0.973-0.331,1.575-0.575
		c2.077-0.842,4.98-2.388,7.718-5.152c1.96-1.978,3.286-4.038,4.178-5.8c-0.843,2.958-1.41,6.31-1.696,10.086v0.024
		C70.9,45.102,70.872,45.574,70.844,46.058"/>
	<path clip-path="url(#SVGID_2_)" fill="#AE7B54" d="M72.272,65.231c-0.878-1.598-2.104-3.385-3.815-5.112
		c-2.79-2.819-5.754-4.361-7.834-5.203c-0.554-0.22-1.048-0.389-1.458-0.522h11.622c0.013,0.349,0.033,0.692,0.052,1.032
		C71.048,59.023,71.522,62.287,72.272,65.231"/>
	<path clip-path="url(#SVGID_2_)" fill="#AE7B54" d="M24.365,54.332v-8.513c0-1.344,1.208-2.365,2.536-2.15
		c3.704,0.598,7.615,1.1,11.724,1.457c7.935,0.685,15.345,0.722,22.115,0.357c3.587-0.192,6.988-0.49,10.2-0.866v0.024
		c-0.039,0.461-0.067,0.934-0.095,1.417c-0.089,1.551-0.13,3.174-0.13,4.864c0,1.189,0.021,2.346,0.073,3.472
		c0.013,0.349,0.033,0.692,0.052,1.032c-3.284-0.237-6.694-0.414-10.22-0.51c-6.884-0.188-14.211-0.082-21.929,0.451
		c-4.109,0.283-8.069,0.668-11.888,1.134C25.509,56.658,24.365,55.643,24.365,54.332"/>
	<path clip-path="url(#SVGID_2_)" fill="#133344" d="M104.126,86.332c-18.027,0-28.215-6.706-31.854-21.101
		c-0.75-2.944-1.224-6.208-1.434-9.806c-0.019-0.34-0.039-0.684-0.052-1.032c-0.052-1.124-0.073-2.283-0.073-3.472
		c0-1.689,0.041-3.313,0.13-4.864c0.028-0.483,0.056-0.956,0.095-1.42v-0.021c0.286-3.776,0.853-7.129,1.696-10.086
		c3.936-13.719,14.039-19.024,31.492-19.024c23.203,0,42.01,15.855,42.01,35.416C146.136,70.477,127.33,86.332,104.126,86.332"/>
	<path clip-path="url(#SVGID_2_)" fill="none" stroke="#FFFFFF" stroke-miterlimit="10" d="M104.126,86.332
		c-18.027,0-28.215-6.706-31.854-21.101c-0.75-2.944-1.224-6.208-1.434-9.806c-0.019-0.34-0.039-0.684-0.052-1.032
		c-0.052-1.124-0.073-2.283-0.073-3.472c0-1.689,0.041-3.313,0.13-4.864c0.028-0.483,0.056-0.956,0.095-1.42v-0.021
		c0.286-3.776,0.853-7.129,1.696-10.086c3.936-13.719,14.039-19.024,31.492-19.024c23.203,0,42.01,15.855,42.01,35.416
		C146.136,70.477,127.33,86.332,104.126,86.332z"/>
	<path clip-path="url(#SVGID_2_)" fill="#FFFFFF" d="M79.843,51.587c0,3.501-2.844,6.339-6.341,6.339
		c-3.501,0-6.341-2.838-6.341-6.339c0-3.5,2.84-6.337,6.341-6.337C77,45.25,79.843,48.087,79.843,51.587"/>
</g>
</svg>
